<svg xmlns="http://www.w3.org/2000/svg" width="132.488" height="23" viewBox="0 0 132.488 23">
  <g id="Grupo_3231" data-name="Grupo 3231" transform="translate(-281 -1555)">
    <g id="Grupo_2023" data-name="Grupo 2023" transform="translate(321.499 1561.062)">
      <g id="Grupo_2019" data-name="Grupo 2019" transform="translate(60.172)">
        <path id="Icon_feather-star" data-name="Icon feather-star" d="M8.38,3l1.662,3.368,3.718.543-2.69,2.62.635,3.7L8.38,11.484,5.055,13.233l.635-3.7L3,6.911l3.718-.543Z" transform="translate(-3 -3)" fill="#eacc2d" stroke="#eacc2d" stroke-linecap="round" stroke-linejoin="round" stroke-width="2"/>
      </g>
      <g id="Grupo_2022" data-name="Grupo 2022" transform="translate(0)">
        <g id="Grupo_2011" data-name="Grupo 2011">
          <path id="Icon_feather-star-2" data-name="Icon feather-star" d="M8.38,3l1.662,3.368,3.718.543-2.69,2.62.635,3.7L8.38,11.484,5.055,13.233l.635-3.7L3,6.911l3.718-.543Z" transform="translate(-3 -3)" fill="#eacc2d" stroke="#eacc2d" stroke-linecap="round" stroke-linejoin="round" stroke-width="2"/>
        </g>
        <g id="Grupo_2017" data-name="Grupo 2017" transform="translate(20.057)">
          <path id="Icon_feather-star-3" data-name="Icon feather-star" d="M8.38,3l1.662,3.368,3.718.543-2.69,2.62.635,3.7L8.38,11.484,5.055,13.233l.635-3.7L3,6.911l3.718-.543Z" transform="translate(-3 -3)" fill="#eacc2d" stroke="#eacc2d" stroke-linecap="round" stroke-linejoin="round" stroke-width="2"/>
        </g>
        <g id="Grupo_2018" data-name="Grupo 2018" transform="translate(40.114)">
          <path id="Icon_feather-star-4" data-name="Icon feather-star" d="M8.38,3l1.662,3.368,3.718.543-2.69,2.62.635,3.7L8.38,11.484,5.055,13.233l.635-3.7L3,6.911l3.718-.543Z" transform="translate(-3 -3)" fill="#eacc2d" stroke="#eacc2d" stroke-linecap="round" stroke-linejoin="round" stroke-width="2"/>
        </g>
        <g id="Grupo_2020" data-name="Grupo 2020" transform="translate(80.229)">
          <path id="Icon_feather-star-5" data-name="Icon feather-star" d="M8.38,3l1.662,3.368,3.718.543-2.69,2.62.635,3.7L8.38,11.484,5.055,13.233l.635-3.7L3,6.911l3.718-.543Z" transform="translate(-3 -3)" fill="#eacc2d" stroke="#eacc2d" stroke-linecap="round" stroke-linejoin="round" stroke-width="2"/>
        </g>
      </g>
    </g>
    <text id="_4_9" data-name="4,9" transform="translate(281 1572)" fill="#095590" font-size="17" font-family="NunitoSans-Black, Nunito Sans" font-weight="800" letter-spacing="-0.02em"><tspan x="0" y="0">4,9</tspan></text>
  </g>
</svg>
